<svg xmlns="http://www.w3.org/2000/svg" fill="none" viewBox="0 0 24 24">
  <path fill="#253017" d="M9.6453 15.0504a.6903.6903 0 0 1-.493-.2047c-.763-.7629-1.1816-1.777-1.1816-2.8469 0-2.2235 1.8049-4.0283 4.0284-4.0283 1.0699 0 2.0839.4186 2.8468 1.1815a.6969.6969 0 0 1 .2047.493.697.697 0 0 1-.2047.4932l-4.7075 4.7075a.6903.6903 0 0 1-.493.2047Zm2.3538-5.6844c-1.4514 0-2.6329 1.1815-2.6329 2.6328 0 .4652.121.9118.3442 1.3025l3.5912-3.5911a2.6198 2.6198 0 0 0-1.3025-.3442Z"/>
  <path fill="#253017" d="M6.0442 18.0554a.708.708 0 0 1-.4558-.1675c-.9955-.8466-1.8886-1.8886-2.6515-3.098-.9862-1.5351-.9862-4.0377 0-5.582 2.27-3.554 5.5727-5.6007 9.0615-5.6007 2.0468 0 4.0656.707 5.8332 2.0374.3071.2326.3722.6699.1396.9769-.2326.307-.6699.3721-.9769.1395-1.5257-1.1536-3.2562-1.7583-4.9959-1.7583-3.005 0-5.8798 1.8049-7.8893 4.9587-.6977 1.0885-.6977 2.9864 0 4.0749.6978 1.0885 1.4979 2.0281 2.3817 2.791a.7036.7036 0 0 1 .0744.9862c-.1302.1581-.3256.2419-.521.2419ZM11.9991 20.3905c-1.2373 0-2.4468-.2512-3.6097-.7443-.3535-.1488-.521-.5582-.3721-.9117.1488-.3535.5582-.521.9117-.3721.9862.4186 2.0188.6326 3.0608.6326 3.005 0 5.8798-1.8048 7.8893-4.9587.6978-1.0885.6978-2.9864 0-4.0749a13.255 13.255 0 0 0-.9396-1.3025c-.2419-.2977-.1954-.735.1023-.9861a.6982.6982 0 0 1 .9862.1023c.3628.4466.7163.9303 1.0326 1.4327.9862 1.5351.9862 4.0377 0 5.5821-2.27 3.5539-5.5727 5.6006-9.0615 5.6006Z"/>
  <path fill="#253017" d="M12.641 15.9714c-.3256 0-.6234-.2326-.6885-.5675a.6848.6848 0 0 1 .5582-.8094c1.0234-.1861 1.8793-1.042 2.0654-2.0654.0744-.3814.4372-.6233.8187-.5582.3814.0744.6326.4373.5582.8187-.2977 1.6095-1.5816 2.8841-3.1818 3.1818-.0465-.0093-.0837 0-.1302 0ZM2.6954 22.0001a.6903.6903 0 0 1-.493-.2047c-.2698-.2698-.2698-.7164 0-.9862l6.9496-6.9496c.2698-.2698.7164-.2698.9862 0 .2698.2698.2698.7163 0 .9861l-6.9497 6.9497a.6903.6903 0 0 1-.493.2047ZM14.3527 10.3428a.69.69 0 0 1-.4931-.2046c-.2698-.2698-.2698-.7164 0-.9862l6.9496-6.9496c.2698-.2698.7164-.2698.9862 0 .2698.2698.2698.7163 0 .9861l-6.9497 6.9497a.69.69 0 0 1-.493.2046Z"/>
</svg>
